<svg width="20" height="19" viewBox="0 0 20 19" fill="none" xmlns="http://www.w3.org/2000/svg">
<path d="M17.4996 2.85036L17.4988 2.84958C17.0304 2.39036 16.478 2.02543 15.8719 1.77462L15.8706 1.77409C15.2416 1.5128 14.5669 1.37906 13.8858 1.38063L13.8835 1.38063C12.9251 1.38063 11.9919 1.64298 11.1817 2.1372L11.1817 2.13722C10.9879 2.25546 10.8044 2.38488 10.6311 2.52549L10.0011 3.03644L9.3712 2.52549C9.19785 2.38488 9.01444 2.25546 8.82059 2.13722L8.82056 2.1372C8.01042 1.64298 7.07718 1.38063 6.11876 1.38063C5.42681 1.38063 4.76093 1.51272 4.13172 1.77409L4.13064 1.77454C3.52201 2.02652 2.97448 2.38826 2.50317 2.84988L2.5018 2.85121L2.5018 2.85121C2.03521 3.30647 1.66247 3.84886 1.40472 4.44764L17.4996 2.85036ZM17.4996 2.85036C17.966 3.30653 18.339 3.84924 18.5978 4.44812C18.8659 5.07124 19.0019 5.72974 19 6.40858V6.41141C19 7.04542 18.8705 7.72779 18.596 8.44568L18.5951 8.44795M17.4996 2.85036L18.5951 8.44795M5.36406 13.6845L5.36417 13.6846C6.40372 14.6446 7.44213 15.4596 8.23349 16.0422C8.62841 16.3329 8.95984 16.5644 9.19655 16.7255C9.31489 16.8061 9.40926 16.8689 9.47574 16.9126C9.5342 16.951 9.56637 16.9715 9.57426 16.9766C9.57589 16.9776 9.57649 16.978 9.57605 16.9777L9.58398 16.9826L9.59182 16.9876L9.99999 17.2494L10.4082 16.9876L10.4083 16.9875C10.4788 16.9423 12.5481 15.6105 14.6362 13.6843C15.8912 12.5256 16.8785 11.4037 17.5833 10.3531L5.36406 13.6845ZM5.36406 13.6845C4.10878 12.5256 3.12127 11.4035 2.41638 10.3527L5.36406 13.6845ZM18.5951 8.44795C18.3678 9.04662 18.0291 9.68762 17.5834 10.3529L18.5951 8.44795ZM1 6.41141C1 5.73051 1.1365 5.07094 1.40469 4.44771L2.41631 10.3526C1.97192 9.68913 1.6344 9.0472 1.4038 8.44519C1.12938 7.72748 1 7.04527 1 6.41141Z" fill="white" fill-opacity="0.4" stroke="white" stroke-width="2"/>
</svg>
